<?xml version="1.0" encoding="UTF-8" standalone="no"?><!DOCTYPE svg PUBLIC "-//W3C//DTD SVG 1.1//EN" "http://www.w3.org/Graphics/SVG/1.1/DTD/svg11.dtd"><svg width="100px" height="100px" version="1.1" xmlns="http://www.w3.org/2000/svg" xmlns:xlink="http://www.w3.org/1999/xlink" xml:space="preserve" xmlns:serif="http://www.serif.com/" style="fill-rule:evenodd;clip-rule:evenodd;stroke-linejoin:round;stroke-miterlimit:2;"><g transform="matrix(0.98,0,0,0.98,1,1)"><path d="M100,10.794L100,89.206C100,95.163 95.163,100 89.206,100L10.794,100C4.837,100 0,95.163 0,89.206L0,10.794C0,4.837 4.837,0 10.794,0L89.206,0C95.163,0 100,4.837 100,10.794Z" style="fill:url(#_Linear1);"/></g><g transform="matrix(0.94,0,0,0.94,3,3)"><path d="M100,10.794L100,89.206C100,95.163 95.163,100 89.206,100L10.794,100C4.837,100 0,95.163 0,89.206L0,10.794C0,4.837 4.837,0 10.794,0L89.206,0C95.163,0 100,4.837 100,10.794Z" style="fill:url(#_Linear2);"/></g><g transform="matrix(2.66182,0,0,2.66182,-86.3852,-26.4586)"><path d="M55.342,30.116L60.43,44.708L54.574,44.708L50.158,31.172L47.614,31.172L47.614,44.708L42.046,44.708L42.046,12.74L50.062,12.74C53.134,12.74 55.438,13.436 56.974,14.828C58.51,16.22 59.278,18.212 59.278,20.804L59.278,23.108C59.278,24.164 59.142,25.124 58.87,25.988C58.598,26.852 58.27,27.532 57.886,28.028C57.502,28.524 57.118,28.94 56.734,29.276C56.35,29.612 56.03,29.844 55.774,29.972L55.342,30.116ZM53.758,23.54L53.758,20.948C53.758,18.58 52.494,17.396 49.966,17.396L47.614,17.396L47.614,26.708L50.542,26.708C51.438,26.708 52.198,26.388 52.822,25.748C53.446,25.108 53.758,24.372 53.758,23.54Z" style="fill:white;fill-rule:nonzero;"/></g><defs><linearGradient id="_Linear1" x1="0" y1="0" x2="1" y2="0" gradientUnits="userSpaceOnUse" gradientTransform="matrix(6.12323e-15,100,-100,6.12323e-15,50,0)"><stop offset="0" style="stop-color:rgb(246,246,246);stop-opacity:1"/><stop offset="0.39" style="stop-color:rgb(253,253,253);stop-opacity:1"/><stop offset="1" style="stop-color:white;stop-opacity:1"/></linearGradient><linearGradient id="_Linear2" x1="0" y1="0" x2="1" y2="0" gradientUnits="userSpaceOnUse" gradientTransform="matrix(-1.28287,100,-100,-1.28287,51.2829,0)"><stop offset="0" style="stop-color:rgb(0,212,255);stop-opacity:1"/><stop offset="0.52" style="stop-color:rgb(0,206,248);stop-opacity:1"/><stop offset="1" style="stop-color:rgb(0,187,225);stop-opacity:1"/></linearGradient></defs></svg>